{"title":"Nick Jonas - Jealous (2014.RnB)","uid":11245910,"size":97116310,"categoryP":"video","categoryS":"music_videos","magnet":"?xt=urn:btih:8dbcbfb562b540598c5493134e40c74384218161&amp;dn=Nick+Jonas+-+Jealous+%282014.RnB%29&amp;tr=udp%3A%2F%2Ftracker.openbittorrent.com%3A80&amp;tr=udp%3A%2F%2Fopen.demonii.com%3A1337&amp;tr=udp%3A%2F%2Ftracker.coppersurfer.tk%3A6969&amp;tr=udp%3A%2F%2Fexodus.desync.com%3A6969","seeders":18,"leechers":1,"uploader":"MeRaDil","files":-1,"time":1413739134,"description":"NICK JONAS - JEALOUS\n\n &lt;a href=&quot;\nhttp://gifyu.com/images/NickJonas.png&quot; rel=&quot;nofollow&quot; target=&quot;_NEW&quot;&gt;\nhttp://gifyu.com/images/NickJonas.png&lt;/a&gt;\n\n\nMPEG4 MUSIC VID\nGeneral\nComplete name                            : Nick Jonas - Jealous\nFormat                                   : MPEG-4\nFormat profile                           : Base Media\nCodec ID                                 : isom\nFile size                                : 92.6 MiB\nDuration                                 : 3mn 42s\nOverall bit rate                         : 3 493 Kbps\nMusicVid name                            : Jealous\nAlbum                                    : Nick Jonas\nPerformer                                : Nick Jonas\nGenre                                    : RnB/Synthpop\nContentType                              : Music Video\nRecorded date                            : 2014\nCopyright                                : Nick Jonas\nCover                                    : Yes\nRating                                   : ***\nMake                                     : MeRaDil\noday                                     : 16-09-2014 USA\nlabl                                     : Island\nrelease                                  : USA - september 16 - 2014\nPart_ID                                  : Jealous\n\nVideo\nID                                       : 1\nFormat                                   : AVC\nFormat/Info                              : Advanced Video Codec\nFormat profile                           : &lt;a class=&quot;__cf_email__&quot; href=&quot;/cdn-cgi/l/email-protection&quot; data-cfemail=&quot;eaa2838d82aaa6dec4da&quot;&gt;[email&amp;#160;protected]&lt;/a&gt;&lt;script cf-hash='f9e31' type=&quot;text/javascript&quot;&gt;\n/* &lt;![CDATA[ */!function(){try{var t=&quot;currentScript&quot;in document?document.currentScript:function(){for(var t=document.getElementsByTagName(&quot;script&quot;),e=t.length;e--;)if(t[e].getAttribute(&quot;cf-hash&quot;))return t[e]}();if(t&amp;&amp;t.previousSibling){var e,r,n,i,c=t.previousSibling,a=c.getAttribute(&quot;data-cfemail&quot;);if(a){for(e=&quot;&quot;,r=parseInt(a.substr(0,2),16),n=2;a.length-n;n+=2)i=parseInt(a.substr(n,2),16)^r,e+=String.fromCharCode(i);e=document.createTextNode(e),c.parentNode.replaceChild(e,c)}}}catch(u){}}();/* ]]&gt; */&lt;/script&gt;\nFormat settings, CABAC                   : Yes\nFormat settings, ReFrames                : 3 frames\nCodec ID                                 : avc1\nCodec ID/Info                            : Advanced Video Coding\nDuration                                 : 3mn 42s\nBit rate                                 : 3 229 Kbps\nWidth                                    : 1 920 pixels\nHeight                                   : 1 080 pixels\nDisplay aspect ratio                     : 16:9\nFrame rate mode                          : Variable\nFrame rate                               : 23.976 fps\nMinimum frame rate                       : 23.974 fps\nMaximum frame rate                       : 23.981 fps\nColor space                              : YUV\nChroma subsampling                       : 4:2:0\nBit depth                                : 8 bits\nScan type                                : Progressive\nBits/(Pixel*Frame)                       : 0.065\nStream size                              : 85.6 MiB (92%)\n\nAudio\nID                                       : 2\nFormat                                   : AAC\nFormat/Info                              : Advanced Audio Codec\nFormat profile                           : LC\nCodec ID                                 : 40\nDuration                                 : 3mn 42s\nBit rate mode                            : Constant\nBit rate                                 : 256 Kbps\nChannel(s)                               : 2 channels\nChannel positions                        : Front: L R\nSampling rate                            : 44.1 KHz\nCompression mode                         : Lossy\nStream size                              : 6.78 MiB (7%)\n &lt;a href=&quot;\nhttps://thepiratebay.se/user/MeRaDil&quot; rel=&quot;nofollow&quot; target=&quot;_NEW&quot;&gt;\nhttps://thepiratebay.se/user/MeRaDil&lt;/a&gt;\n\nNick Jonas * RnB * Synthpop * Promo\n\n:)","torrent":{"xt":"urn:btih:8dbcbfb562b540598c5493134e40c74384218161","amp;dn":"Nick+Jonas+-+Jealous+%282014.RnB%29","amp;tr":["udp%3A%2F%2Ftracker.openbittorrent.com%3A80","udp%3A%2F%2Fopen.demonii.com%3A1337","udp%3A%2F%2Ftracker.coppersurfer.tk%3A6969","udp%3A%2F%2Fexodus.desync.com%3A6969"],"infoHash":"8dbcbfb562b540598c5493134e40c74384218161","infoHashBuffer":{"type":"Buffer","data":[141,188,191,181,98,181,64,89,140,84,147,19,78,64,199,67,132,33,129,97]},"announce":[],"urlList":[]}}